<svg id="eebkQO1nLAN1" xmlns="http://www.w3.org/2000/svg" xmlns:xlink="http://www.w3.org/1999/xlink" viewBox="0 0 64 64" width="128" height="128" shape-rendering="geometricPrecision" text-rendering="geometricPrecision">
<style>#eebkQO1nLAN2_to {
  animation: 4s linear infinite forwards eebkQO1nLAN2_to__to;
}

@keyframes eebkQO1nLAN2_to__to {
  0% {
    transform: translate(-32px, 32px);
  }

  25% {
    transform: translate(0, 32px);
  }

  50% {
    transform: translate(32px, 32px);
  }

  75% {
    transform: translate(64px, 32px);
  }

  100% {
    transform: translate(96px, 32px);
  }
}

</style>
<g id="eebkQO1nLAN2_to" transform="translate(-32,32)"><g transform="rotate(-359.999999) scale(0.722011,0.722011) translate(-32.009357,-32.008649)"><path d="M62.123,42.763L49.471,28.392v0l-.015-.017c-.046498-.035276-.092176-.071619-.137-.109h-.009c-.04209-.020096-.086901-.033909-.133-.041-.016693-.005721-.033726-.010397-.051-.014-.105449-.00775-.210603.018539-.3.075-.021135.009064-.04153.019763-.061.032v0L44.441,31.8L34.725,20.58c-.011-.012-.026-.015-.037-.026-.037574-.037375-.081187-.06814-.129-.091-.020752-.009471-.042137-.01749-.064-.024-.02344-.010146-.047486-.01883-.072-.026-.024311-.001482-.048689-.001482-.073,0-.018,0-.033-.009-.051-.008s-.024.011-.037.013c-.040082.008806-.079009.022229-.116.04-.029182.010694-.057304.024085-.084.04-.05729.039123-.105677.089896-.142.149l-.007.007-5.129,8.926h-2.978c-.129773-.000263-.254564.049941-.348.14l-4.5,4.339-5.071-2.59c-.009-.005-.018,0-.027-.005-.07836-.03764-.165395-.053528-.252-.046-.007,0-.014,0-.022.006-.054294.00607-.107098.021641-.156.046-.020608.013654-.040012.029043-.058.046-.01.007-.023.006-.033.014L1.931,42.709c-.212077.177007-.240507.492423-.0635.7045s.492423.240507.7045.0635L15.5,32.7l2.34,4.532-.5,5.069c-.013874.140872.032614.281023.127927.385677s.230521.164005.372073.163323c.141786.000232.277004-.059743.372-.165l7.89-8.755l2.876,5.443c.095322.163117.26909.264419.458.267.19215-.007078.363218-.123715.44-.3l3.21-7.137c.01867-.040999.031463-.084427.038-.129L34.675,22.05l8.984,10.37-5.667,4.491c-.166929.132172-.231844.355559-.161747.55661s.259827.335654.472747.33539c.112785.00035.222253-.038141.31-.109l6.076-4.815v0l2.764-2.224-3.215,5.933-9.208,4.8c-.203949.106736-.308672.338924-.25368.56245s.255489.380622.48568.38055c.080499.000144.159808-.019426.231-.057L44.84,37.4c.087482-.044777.159828-.114341.208-.2l4.13-7.624l12.2,13.85c.115316.14317.299896.211514.480645.177965s.328509-.163578.384766-.338594.011936-.366788-.115411-.499371ZM32.144,31.856L29.381,38l-2.732-5.171c-.076473-.144435-.218707-.24238-.380918-.262308s-.323923.040678-.433082.162308l-7.35,8.156.366-3.7c.010947-.097934-.00677-.19694-.051-.285l-1.98-3.834l4,2.044c.190142.097424.421178.063271.575-.085l4.612-4.446h3.066c.179192.000147.344762-.095609.434-.251l3.934-6.843Z"></path></g></g></svg>
